<?xml version="1.0" standalone="no"?>
<!DOCTYPE svg PUBLIC "-//W3C//DTD SVG 20010904//EN"
 "http://www.w3.org/TR/2001/REC-SVG-20010904/DTD/svg10.dtd">
<svg version="1.0" xmlns="http://www.w3.org/2000/svg"
 width="512.000000pt" height="512.000000pt" viewBox="0 0 512.000000 512.000000"
 preserveAspectRatio="xMidYMid meet">
<metadata>
Created by potrace 1.14, written by Peter Selinger 2001-2017
</metadata>
<g transform="translate(0.000000,512.000000) scale(0.100000,-0.100000)"
fill="#000000" stroke="none">
<path d="M2206 5105 c-171 -47 -304 -170 -369 -343 -20 -54 -21 -76 -24 -457
-2 -310 1 -416 12 -472 33 -168 126 -328 255 -436 34 -29 35 -39 31 -198 l-1
-35 -202 -64 c-509 -159 -590 -195 -690 -304 -21 -22 -43 -53 -49 -68 -7 -16
-32 -39 -63 -57 -51 -28 -97 -82 -112 -131 -4 -14 -8 -85 -9 -157 l-1 -133 76
0 76 0 -1 113 c-1 118 5 152 33 173 14 11 280 13 1393 14 1370 0 1375 0 1397
-20 12 -12 23 -28 23 -38 1 -9 2 -390 3 -846 1 -886 2 -877 -47 -890 -12 -3
-637 -6 -1388 -6 -1360 0 -1365 0 -1387 20 -12 12 -23 31 -23 43 -1 12 -2 306
-3 652 l-1 630 -75 3 -75 3 0 -668 0 -669 26 -44 26 -43 -24 -47 c-15 -29 -25
-68 -27 -105 -2 -33 -4 -63 -5 -67 -1 -5 -221 -8 -491 -8 l-490 0 0 -225 0
-225 2110 0 2110 0 0 75 0 75 -2035 0 -2035 0 0 75 0 75 2410 0 2410 0 0 -75
0 -75 -150 0 -150 0 0 -75 0 -75 225 0 225 0 0 225 0 225 -492 2 -492 3 -2 63
c-1 44 -9 77 -26 110 l-24 47 25 50 26 49 0 856 c1 470 -3 873 -8 895 -12 61
-51 112 -111 145 -35 20 -58 41 -66 60 -18 43 -100 122 -169 165 -34 20 -98
50 -143 67 -82 30 -134 46 -460 149 l-168 53 -1 46 c-4 140 0 160 38 193 20
18 39 34 43 37 25 18 106 133 135 190 75 148 78 171 83 600 3 271 0 406 -8
455 -34 198 -190 368 -385 419 -80 21 -633 21 -709 1z m736 -172 c107 -50 177
-136 203 -248 6 -27 11 -104 11 -169 l-1 -119 -580 0 c-319 1 -588 2 -597 2
-15 1 -16 17 -14 144 2 136 4 146 32 207 49 104 144 183 251 209 21 5 171 9
333 8 l295 -2 67 -32z m213 -877 c-4 -210 -12 -253 -67 -363 -40 -81 -150
-197 -228 -240 -101 -57 -182 -77 -305 -77 -176 2 -295 52 -420 178 -132 134
-173 259 -173 533 l0 162 599 -1 598 0 -4 -192z m-780 -813 c64 -18 244 -25
315 -12 30 6 80 19 110 30 30 10 55 19 56 19 1 0 2 -34 2 -75 0 -66 -3 -80
-25 -106 -108 -128 -438 -128 -545 0 -22 25 -25 40 -26 98 0 37 2 71 4 75 3 4
17 2 32 -4 15 -5 50 -17 77 -25z m-182 -263 c174 -171 557 -170 736 1 l40 39
283 -90 c378 -119 462 -154 512 -209 l19 -21 -1221 0 c-672 0 -1222 3 -1222 8
0 12 99 73 164 100 44 18 615 206 644 211 2 1 22 -17 45 -39z m1750 -2389 c28
-11 44 -49 42 -101 l-1 -35 -1422 -3 c-782 -1 -1422 1 -1423 5 -9 69 0 107 29
129 14 11 278 13 1384 14 818 0 1377 -4 1391 -9z"/>
<path d="M3685 2325 l0 -75 75 0 76 0 -1 73 0 72 -75 3 -75 3 0 -76z"/>
<path d="M3684 2025 l0 -75 76 0 76 0 -1 73 0 72 -75 3 -75 3 -1 -76z"/>
<path d="M1941 1810 l-159 -159 158 -159 157 -160 52 50 c28 27 51 52 51 56 0
4 -46 53 -102 109 l-103 103 105 105 104 104 -20 22 c-10 12 -34 36 -52 55
l-33 33 -158 -159z"/>
<path d="M2983 1931 c-76 -74 -79 -60 38 -177 l104 -104 -105 -105 -104 -104
20 -22 c10 -12 34 -37 53 -54 l34 -31 158 159 158 159 -78 76 c-43 43 -114
114 -159 158 l-80 82 -39 -37z"/>
<path d="M2540 1942 c0 -5 -12 -65 -26 -133 -14 -68 -28 -135 -30 -149 -2 -14
-7 -36 -10 -50 -3 -14 -8 -36 -10 -50 -3 -14 -12 -58 -20 -99 -16 -78 -12 -89
26 -92 16 -1 31 -3 76 -13 l29 -7 57 283 c37 187 53 285 46 289 -6 4 -33 10
-59 13 -27 4 -56 9 -64 12 -8 4 -15 2 -15 -4z"/>
<path d="M4370 75 l0 -75 75 0 75 0 0 75 0 75 -75 0 -75 0 0 -75z"/>
</g>
</svg>
